<svg width="79" height="30" viewBox="0 0 79 30" fill="none" xmlns="http://www.w3.org/2000/svg">
<path d="M4.57812 9.38281L4.89062 9.32031C5.67708 9.33073 6.29167 9.52344 6.73438 9.89844C7.17708 10.2682 7.39844 10.7969 7.39844 11.4844C7.39844 12.3229 7.14844 13.099 6.64844 13.8125C5.97656 14.776 5.03125 15.4479 3.8125 15.8281C3.0625 16.0573 2.58333 16.1016 2.375 15.9609C2.25 15.8776 2.1875 15.7292 2.1875 15.5156L2.26562 9.25V8.39844C2.26562 7.65365 2.2526 7.04427 2.22656 6.57031C2.20573 6.09635 2.1875 5.70052 2.17188 5.38281C2.15625 5.0651 2.14062 4.77604 2.125 4.51562C2.11458 4.25 2.125 4.08333 2.15625 4.01562C2.19271 3.94271 2.23958 3.88802 2.29688 3.85156C2.42708 3.76302 2.79167 3.66146 3.39062 3.54688C3.99479 3.43229 4.46094 3.375 4.78906 3.375C6.49219 3.375 7.34375 4.09375 7.34375 5.53125C7.34375 6.69792 6.72917 7.76042 5.5 8.71875C5.21354 8.94271 4.90625 9.16406 4.57812 9.38281ZM2.96875 15.2266C3.40104 15.2109 3.8125 15.1146 4.20312 14.9375C4.64583 14.7292 5.0026 14.5234 5.27344 14.3203C5.54427 14.112 5.78646 13.8724 6 13.6016C6.46875 13.0078 6.70312 12.3307 6.70312 11.5703C6.70312 11.0339 6.49219 10.6224 6.07031 10.3359C5.6901 10.0807 5.21094 9.95312 4.63281 9.95312C4.13281 9.95312 3.71615 10.0104 3.38281 10.125C3.1849 10.1927 3.02865 10.2526 2.91406 10.3047C2.91406 10.4245 2.91667 10.5521 2.92188 10.6875C2.92188 11.0573 2.92188 11.4609 2.92188 11.8984C2.92708 12.3359 2.93229 12.7734 2.9375 13.2109C2.94792 14.1536 2.95833 14.8255 2.96875 15.2266ZM2.91406 9.57812C3.6276 9.43229 4.38542 9.00521 5.1875 8.29688C5.76042 7.79167 6.17188 7.22917 6.42188 6.60938C6.54688 6.28646 6.60938 5.96354 6.60938 5.64062C6.60938 5.31771 6.55729 5.05469 6.45312 4.85156C6.35417 4.64323 6.21875 4.47396 6.04688 4.34375C5.71875 4.10938 5.26823 3.99219 4.69531 3.99219C4.04427 3.99219 3.46354 4.10938 2.95312 4.34375C2.95312 4.41146 2.95052 4.5 2.94531 4.60938C2.9401 4.79688 2.9349 5.08073 2.92969 5.46094C2.91927 6.22135 2.91406 7.0625 2.91406 7.98438V9.57812ZM11.6719 3.33594C11.7969 3.33594 11.9115 3.38802 12.0156 3.49219C12.1198 3.59635 12.2005 3.8151 12.2578 4.14844C12.3203 4.47656 12.4115 4.94792 12.5312 5.5625C12.6562 6.17708 12.7943 6.83333 12.9453 7.53125C13.0964 8.22917 13.2552 8.95052 13.4219 9.69531C13.5885 10.4349 13.7552 11.1536 13.9219 11.8516C14.3229 13.487 14.6354 14.6823 14.8594 15.4375C14.9115 15.6302 14.8958 15.7839 14.8125 15.8984C14.7344 16.013 14.6458 16.0703 14.5469 16.0703C14.4479 16.0703 14.3568 16.0417 14.2734 15.9844C14.1953 15.9271 14.125 15.7578 14.0625 15.4766C14 15.1953 13.8984 14.7396 13.7578 14.1094C13.6172 13.4792 13.4661 12.8021 13.3047 12.0781C13.2995 12.0469 13.2943 12.0182 13.2891 11.9922C12.9349 11.9766 12.4349 11.9688 11.7891 11.9688C11.0286 11.9688 10.4479 11.9792 10.0469 12C10.0417 12.0312 10.0365 12.0625 10.0312 12.0938C9.71354 13.625 9.47917 14.8099 9.32812 15.6484C9.27604 15.9141 9.13802 16.0469 8.91406 16.0469C8.67969 16.0469 8.53646 15.9323 8.48438 15.7031C8.46875 15.6354 8.48438 15.5286 8.53125 15.3828C8.57812 15.237 8.64583 14.987 8.73438 14.6328C8.82812 14.2734 8.92708 13.8646 9.03125 13.4062C9.14062 12.9427 9.25521 12.4375 9.375 11.8906C9.49479 11.3438 9.61719 10.7812 9.74219 10.2031C9.86719 9.625 9.99219 9.04427 10.1172 8.46094C10.2422 7.8724 10.362 7.30469 10.4766 6.75781C10.5911 6.21094 10.6979 5.69792 10.7969 5.21875C10.901 4.73958 10.9844 4.35938 11.0469 4.07812C11.1458 3.58333 11.3542 3.33594 11.6719 3.33594ZM10.1953 11.2734C10.5911 11.2943 11.125 11.3047 11.7969 11.3047C12.3542 11.3047 12.7995 11.2969 13.1328 11.2812C13.0234 10.8073 12.9141 10.3203 12.8047 9.82031C12.6328 9.04427 12.4688 8.29167 12.3125 7.5625C12.0521 6.36979 11.8281 5.32292 11.6406 4.42188C11.5208 5.02083 11.349 5.83594 11.125 6.86719C10.8333 8.24219 10.612 9.28906 10.4609 10.0078C10.3724 10.4401 10.2839 10.862 10.1953 11.2734ZM18.9531 9.38281L19.2656 9.32031C20.0521 9.33073 20.6667 9.52344 21.1094 9.89844C21.5521 10.2682 21.7734 10.7969 21.7734 11.4844C21.7734 12.3229 21.5234 13.099 21.0234 13.8125C20.3516 14.776 19.4062 15.4479 18.1875 15.8281C17.4375 16.0573 16.9583 16.1016 16.75 15.9609C16.625 15.8776 16.5625 15.7292 16.5625 15.5156L16.6406 9.25V8.39844C16.6406 7.65365 16.6276 7.04427 16.6016 6.57031C16.5807 6.09635 16.5625 5.70052 16.5469 5.38281C16.5312 5.0651 16.5156 4.77604 16.5 4.51562C16.4896 4.25 16.5 4.08333 16.5312 4.01562C16.5677 3.94271 16.6146 3.88802 16.6719 3.85156C16.8021 3.76302 17.1667 3.66146 17.7656 3.54688C18.3698 3.43229 18.8359 3.375 19.1641 3.375C20.8672 3.375 21.7188 4.09375 21.7188 5.53125C21.7188 6.69792 21.1042 7.76042 19.875 8.71875C19.5885 8.94271 19.2812 9.16406 18.9531 9.38281ZM17.3438 15.2266C17.776 15.2109 18.1875 15.1146 18.5781 14.9375C19.0208 14.7292 19.3776 14.5234 19.6484 14.3203C19.9193 14.112 20.1615 13.8724 20.375 13.6016C20.8438 13.0078 21.0781 12.3307 21.0781 11.5703C21.0781 11.0339 20.8672 10.6224 20.4453 10.3359C20.0651 10.0807 19.5859 9.95312 19.0078 9.95312C18.5078 9.95312 18.0911 10.0104 17.7578 10.125C17.5599 10.1927 17.4036 10.2526 17.2891 10.3047C17.2891 10.4245 17.2917 10.5521 17.2969 10.6875C17.2969 11.0573 17.2969 11.4609 17.2969 11.8984C17.3021 12.3359 17.3073 12.7734 17.3125 13.2109C17.3229 14.1536 17.3333 14.8255 17.3438 15.2266ZM17.2891 9.57812C18.0026 9.43229 18.7604 9.00521 19.5625 8.29688C20.1354 7.79167 20.5469 7.22917 20.7969 6.60938C20.9219 6.28646 20.9844 5.96354 20.9844 5.64062C20.9844 5.31771 20.9323 5.05469 20.8281 4.85156C20.7292 4.64323 20.5938 4.47396 20.4219 4.34375C20.0938 4.10938 19.6432 3.99219 19.0703 3.99219C18.4193 3.99219 17.8385 4.10938 17.3281 4.34375C17.3281 4.41146 17.3255 4.5 17.3203 4.60938C17.3151 4.79688 17.3099 5.08073 17.3047 5.46094C17.2943 6.22135 17.2891 7.0625 17.2891 7.98438V9.57812ZM26.6953 13.2344L26.75 15.5078C26.75 15.7422 26.638 15.901 26.4141 15.9844C26.3568 16.0052 26.2891 16.0156 26.2109 16.0156C26.1328 16.0156 26.0495 15.974 25.9609 15.8906C25.8724 15.8021 25.8359 15.6667 25.8516 15.4844C25.8672 15.2969 25.8854 15.112 25.9062 14.9297C25.9271 14.7474 25.9453 14.5625 25.9609 14.375C25.9974 13.9375 26.0156 13.5964 26.0156 13.3516C26.0156 13.1068 26.013 12.8958 26.0078 12.7188C26.0026 12.5417 25.9948 12.3594 25.9844 12.1719C25.9792 12.0208 25.9714 11.8516 25.9609 11.6641C25.7891 11.2266 25.599 10.7604 25.3906 10.2656C25.125 9.61979 24.849 8.94792 24.5625 8.25C23.3854 5.41667 22.7969 3.88281 22.7969 3.64844C22.7969 3.51823 22.8359 3.41406 22.9141 3.33594C22.9922 3.25781 23.0911 3.21615 23.2109 3.21094C23.3359 3.20573 23.4323 3.2474 23.5 3.33594C23.5677 3.41927 23.6667 3.6901 23.7969 4.14844C23.9323 4.60677 24.1302 5.19792 24.3906 5.92188C24.651 6.64062 24.9141 7.32812 25.1797 7.98438C25.5286 8.85417 25.9219 9.77865 26.3594 10.7578C26.4375 10.5443 26.5208 10.3177 26.6094 10.0781C26.7604 9.6875 26.9141 9.27865 27.0703 8.85156C27.2318 8.41927 27.3932 7.97917 27.5547 7.53125C27.7214 7.07812 27.8802 6.63542 28.0312 6.20312C28.3958 5.14583 28.6276 4.44271 28.7266 4.09375C28.8255 3.73958 28.9089 3.4974 28.9766 3.36719C29.0443 3.23177 29.1458 3.16406 29.2812 3.16406C29.5312 3.16406 29.6562 3.28646 29.6562 3.53125C29.6562 3.71875 29.4688 4.29688 29.0938 5.26562C28.724 6.23438 28.4844 6.8724 28.375 7.17969C28.2708 7.48177 28.1693 7.76823 28.0703 8.03906C27.9714 8.30469 27.8646 8.59115 27.75 8.89844C27.6354 9.20052 27.5156 9.51302 27.3906 9.83594C27.2708 10.1536 27.1562 10.4583 27.0469 10.75C26.9219 11.0625 26.8177 11.3255 26.7344 11.5391C26.7083 12.4661 26.6953 13.0312 26.6953 13.2344Z" fill="#0571BD"/>
<path d="M55.5859 11.7734C55.5859 11.6016 55.6276 11.4688 55.7109 11.375C55.7995 11.276 55.8984 11.2266 56.0078 11.2266C56.1224 11.2266 56.2214 11.2682 56.3047 11.3516C56.3932 11.4297 56.4323 11.5521 56.4219 11.7188C56.3698 12.7708 56.0859 13.6172 55.5703 14.2578C55.0755 14.8724 54.4557 15.1797 53.7109 15.1797C52.3047 15.1797 51.3958 14.1276 50.9844 12.0234C50.8281 11.2474 50.75 10.3333 50.75 9.28125C50.75 8.22396 50.8151 7.28385 50.9453 6.46094C51.0755 5.63281 51.2734 4.91406 51.5391 4.30469C52.1068 3.0026 52.9141 2.35156 53.9609 2.35156C54.7734 2.35156 55.375 2.67188 55.7656 3.3125C56.1771 3.99479 56.3828 5.10938 56.3828 6.65625C56.3828 6.82812 56.3438 6.95833 56.2656 7.04688C56.1875 7.13021 56.0938 7.17188 55.9844 7.17188C55.7448 7.17188 55.625 7.02083 55.625 6.71875C55.625 4.79167 55.3177 3.64323 54.7031 3.27344C54.4844 3.14323 54.2292 3.07812 53.9375 3.07812C53.6458 3.07812 53.3828 3.16146 53.1484 3.32812C52.9193 3.48958 52.7135 3.71615 52.5312 4.00781C52.3542 4.29427 52.2005 4.63542 52.0703 5.03125C51.9401 5.42188 51.8333 5.84375 51.75 6.29688C51.5833 7.21354 51.5 8.11979 51.5 9.01562C51.5 9.90625 51.5286 10.6224 51.5859 11.1641C51.6432 11.7005 51.724 12.1615 51.8281 12.5469C51.9323 12.9271 52.0547 13.2396 52.1953 13.4844C52.3411 13.724 52.5 13.9141 52.6719 14.0547C52.9635 14.2995 53.3359 14.4219 53.7891 14.4219C54.2943 14.4219 54.7083 14.2161 55.0312 13.8047C55.4115 13.3307 55.5964 12.6536 55.5859 11.7734ZM60.8594 2.33594C60.9844 2.33594 61.099 2.38802 61.2031 2.49219C61.3073 2.59635 61.388 2.8151 61.4453 3.14844C61.5078 3.47656 61.599 3.94792 61.7188 4.5625C61.8438 5.17708 61.9818 5.83333 62.1328 6.53125C62.2839 7.22917 62.4427 7.95052 62.6094 8.69531C62.776 9.4349 62.9427 10.1536 63.1094 10.8516C63.5104 12.487 63.8229 13.6823 64.0469 14.4375C64.099 14.6302 64.0833 14.7839 64 14.8984C63.9219 15.013 63.8333 15.0703 63.7344 15.0703C63.6354 15.0703 63.5443 15.0417 63.4609 14.9844C63.3828 14.9271 63.3125 14.7578 63.25 14.4766C63.1875 14.1953 63.0859 13.7396 62.9453 13.1094C62.8047 12.4792 62.6536 11.8021 62.4922 11.0781C62.487 11.0469 62.4818 11.0182 62.4766 10.9922C62.1224 10.9766 61.6224 10.9688 60.9766 10.9688C60.2161 10.9688 59.6354 10.9792 59.2344 11C59.2292 11.0312 59.224 11.0625 59.2188 11.0938C58.901 12.625 58.6667 13.8099 58.5156 14.6484C58.4635 14.9141 58.3255 15.0469 58.1016 15.0469C57.8672 15.0469 57.724 14.9323 57.6719 14.7031C57.6562 14.6354 57.6719 14.5286 57.7188 14.3828C57.7656 14.237 57.8333 13.987 57.9219 13.6328C58.0156 13.2734 58.1146 12.8646 58.2188 12.4062C58.3281 11.9427 58.4427 11.4375 58.5625 10.8906C58.6823 10.3438 58.8047 9.78125 58.9297 9.20312C59.0547 8.625 59.1797 8.04427 59.3047 7.46094C59.4297 6.8724 59.5495 6.30469 59.6641 5.75781C59.7786 5.21094 59.8854 4.69792 59.9844 4.21875C60.0885 3.73958 60.1719 3.35938 60.2344 3.07812C60.3333 2.58333 60.5417 2.33594 60.8594 2.33594ZM59.3828 10.2734C59.7786 10.2943 60.3125 10.3047 60.9844 10.3047C61.5417 10.3047 61.987 10.2969 62.3203 10.2812C62.2109 9.80729 62.1016 9.32031 61.9922 8.82031C61.8203 8.04427 61.6562 7.29167 61.5 6.5625C61.2396 5.36979 61.0156 4.32292 60.8281 3.42188C60.7083 4.02083 60.5365 4.83594 60.3125 5.86719C60.0208 7.24219 59.7995 8.28906 59.6484 9.00781C59.5599 9.4401 59.4714 9.86198 59.3828 10.2734ZM66.6328 11.375C66.6745 12.5573 66.7083 13.5833 66.7344 14.4531C66.7396 14.6302 66.6953 14.763 66.6016 14.8516C66.5078 14.9349 66.4062 14.9766 66.2969 14.9766C66.1927 14.9766 66.099 14.9375 66.0156 14.8594C65.9375 14.776 65.8984 14.6536 65.8984 14.4922V8.61719C65.8984 6.58594 65.849 4.76302 65.75 3.14844C65.7344 2.91927 65.7969 2.76042 65.9375 2.67188C65.9948 2.63542 66.0547 2.61458 66.1172 2.60938C66.1797 2.59896 66.3177 2.5625 66.5312 2.5C67.0677 2.34896 67.599 2.27344 68.125 2.27344C68.6562 2.27344 69.0938 2.33333 69.4375 2.45312C69.7865 2.56771 70.0833 2.74479 70.3281 2.98438C70.849 3.49479 71.1094 4.2474 71.1094 5.24219C71.1094 6.52344 70.6042 7.76042 69.5938 8.95312C69.4323 9.14583 69.2604 9.33594 69.0781 9.52344C69.5885 11.0859 70.1875 12.6797 70.875 14.3047C71 14.5859 70.9375 14.7917 70.6875 14.9219C70.625 14.9531 70.5521 14.9688 70.4688 14.9688C70.2812 14.9688 70.1484 14.862 70.0703 14.6484C69.9036 14.1641 69.7526 13.7005 69.6172 13.2578C69.4818 12.8099 69.349 12.375 69.2188 11.9531C68.9896 11.1927 68.7734 10.5417 68.5703 10C67.9974 10.5052 67.3516 10.9635 66.6328 11.375ZM66.6094 10.6328C67.4323 10.1536 68.2031 9.5026 68.9219 8.67969C69.8854 7.5599 70.3672 6.4375 70.3672 5.3125C70.3672 4.14583 69.9583 3.39323 69.1406 3.05469C68.6927 2.86719 68.1224 2.84115 67.4297 2.97656C67.1016 3.03906 66.8333 3.1224 66.625 3.22656C66.5573 4.79427 66.5234 6.10938 66.5234 7.17188C66.5234 8.30208 66.5234 8.91146 66.5234 9C66.5286 9.08333 66.5312 9.16146 66.5312 9.23438C66.5365 9.30208 66.5417 9.375 66.5469 9.45312C66.5521 9.52604 66.5573 9.63281 66.5625 9.77344C66.5729 9.91406 66.5833 10.0964 66.5938 10.3203C66.599 10.4141 66.6042 10.5182 66.6094 10.6328ZM73.7344 10.7109L73.75 13.4844C73.75 13.7344 73.75 13.9479 73.75 14.125C73.7552 14.2031 73.7578 14.2708 73.7578 14.3281C75.0703 14.3281 75.9427 14.3073 76.375 14.2656C76.8229 14.2188 77.0833 14.2057 77.1562 14.2266C77.2292 14.2474 77.2917 14.2812 77.3438 14.3281C77.4479 14.4219 77.5 14.526 77.5 14.6406C77.5 14.75 77.4505 14.8464 77.3516 14.9297C77.2526 15.0078 77.1146 15.0417 76.9375 15.0312C76.0833 14.9635 75.3125 14.9531 74.625 15C73.9375 15.0417 73.5521 15.0677 73.4688 15.0781C73.3854 15.0938 73.3099 15.0938 73.2422 15.0781C73.1797 15.0677 73.1224 15.0417 73.0703 15C72.9505 14.9115 72.8958 14.7812 72.9062 14.6094C72.9844 13.1042 73.0234 11.4401 73.0234 9.61719C73.0234 7.78906 73.0234 6.64062 73.0234 6.17188C73.0286 5.69792 73.0312 5.26562 73.0312 4.875C73.0208 4.03646 73.0026 3.44531 72.9766 3.10156C72.9505 2.7526 72.9557 2.54427 72.9922 2.47656C73.0339 2.40885 73.0833 2.35938 73.1406 2.32812C73.2188 2.29167 73.3177 2.28385 73.4375 2.30469C73.6562 2.34115 73.9453 2.35938 74.3047 2.35938C74.9974 2.35938 75.4688 2.34635 75.7188 2.32031C75.974 2.28906 76.138 2.28646 76.2109 2.3125C76.2839 2.33333 76.3438 2.36458 76.3906 2.40625C76.4948 2.48958 76.5469 2.59115 76.5469 2.71094C76.5469 2.83073 76.5 2.92969 76.4062 3.00781C76.3125 3.08594 76.1849 3.1224 76.0234 3.11719C75.862 3.10677 75.6901 3.09635 75.5078 3.08594C75.3255 3.07031 75.1302 3.05729 74.9219 3.04688C74.4844 3.03125 74.1042 3.03646 73.7812 3.0625C73.7812 3.51562 73.7786 3.96615 73.7734 4.41406C73.7682 4.94531 73.763 5.48438 73.7578 6.03125C73.7422 7.5 73.7344 8.58333 73.7344 9.28125C74.3854 9.28125 74.8646 9.26562 75.1719 9.23438C75.5052 9.19792 75.7135 9.21354 75.7969 9.28125C75.8854 9.34896 75.9297 9.4401 75.9297 9.55469C75.9297 9.84115 75.6615 9.97917 75.125 9.96875C75.0156 9.96354 74.9167 9.96094 74.8281 9.96094L74.1953 9.95312H73.7344V10.7109Z" fill="#FE02F9"/>
<path d="M4.17 23.02C3.98333 23.7667 3.71333 24.4 3.36 24.92L3.73 25.11C4.10333 25.3033 4.41667 25.45 4.67 25.55C4.92333 25.6433 5.18 25.69 5.44 25.69C5.8 25.69 6.14 25.64 6.46 25.54C6.78 25.44 7.12 25.2767 7.48 25.05C7.16 25.3833 6.83333 25.6267 6.5 25.78C6.17333 25.9267 5.79667 26 5.37 26C5.08333 26 4.79 25.9433 4.49 25.83C4.19 25.7167 3.82667 25.5533 3.4 25.34C3.37333 25.32 3.29 25.2767 3.15 25.21C2.91667 25.4967 2.66667 25.7167 2.4 25.87C2.13333 26.0233 1.86333 26.1 1.59 26.1C1.30333 26.1 1.08333 26.0467 0.93 25.94C0.77 25.8333 0.69 25.6833 0.69 25.49C0.69 25.1967 0.816667 24.9633 1.07 24.79C1.33 24.61 1.63667 24.52 1.99 24.52C2.31667 24.52 2.67667 24.61 3.07 24.79C3.37 24.31 3.61 23.72 3.79 23.02L4.15 21.59C4.18333 21.4633 4.20667 21.38 4.22 21.34C3.87333 21.0533 3.58667 20.66 3.36 20.16C3.64 20.5533 3.95 20.8667 4.29 21.1C4.53667 20.3933 4.88 19.85 5.32 19.47C5.76667 19.09 6.27667 18.9 6.85 18.9C7.18333 18.9 7.47333 18.9633 7.72 19.09C7.97333 19.21 8.15333 19.3767 8.26 19.59C8.27333 19.67 8.28 19.7467 8.28 19.82C8.28 20.2267 8.18333 20.5933 7.99 20.92C7.79667 21.24 7.53 21.4933 7.19 21.68C6.85 21.86 6.47 21.95 6.05 21.95C5.46333 21.95 4.96 21.8233 4.54 21.57L4.53 21.59L4.17 23.02ZM6.77 19.21C6.29 19.21 5.86 19.39 5.48 19.75C5.10667 20.11 4.81667 20.6233 4.61 21.29C5.05667 21.5233 5.56 21.64 6.12 21.64C6.68 21.64 7.11667 21.4567 7.43 21.09C7.74333 20.7167 7.91 20.2167 7.93 19.59C7.85 19.4767 7.70667 19.3867 7.5 19.32C7.29333 19.2467 7.05 19.21 6.77 19.21ZM1.66 25.81C1.86667 25.81 2.07 25.7467 2.27 25.62C2.47667 25.4933 2.67333 25.3133 2.86 25.08C2.48 24.9 2.16333 24.81 1.91 24.81C1.67 24.81 1.47 24.87 1.31 24.99C1.15 25.1033 1.07 25.25 1.07 25.43C1.07 25.55 1.12 25.6433 1.22 25.71C1.32667 25.7767 1.47333 25.81 1.66 25.81ZM11.5431 25.51C11.5365 25.53 11.5331 25.5567 11.5331 25.59C11.5331 25.6433 11.5631 25.67 11.6231 25.67C11.6965 25.67 11.7965 25.64 11.9231 25.58C12.0565 25.5133 12.2365 25.4067 12.4631 25.26C12.2431 25.5 12.0231 25.6933 11.8031 25.84C11.5898 25.9867 11.4098 26.06 11.2631 26.06C11.2098 26.06 11.1698 26.0467 11.1431 26.02C11.1231 26 11.1131 25.9633 11.1131 25.91C11.1131 25.85 11.1231 25.7667 11.1431 25.66L11.3431 24.85C11.1165 25.2167 10.8265 25.5167 10.4731 25.75C10.1198 25.9833 9.79313 26.1 9.49313 26.1C9.25979 26.1 9.05979 26.0333 8.89313 25.9C8.73313 25.7667 8.58646 25.5767 8.45313 25.33C8.38646 25.0833 8.35313 24.84 8.35313 24.6C8.35313 24.02 8.47313 23.47 8.71313 22.95C8.95979 22.4233 9.29979 22 9.73313 21.68C10.1731 21.36 10.6631 21.2 11.2031 21.2C11.7965 21.2 12.3231 21.4667 12.7831 22C12.2231 21.6667 11.6798 21.5 11.1531 21.5C10.6865 21.5 10.2665 21.6567 9.89313 21.97C9.51979 22.2767 9.22646 22.6767 9.01313 23.17C8.80646 23.6633 8.70313 24.1767 8.70313 24.71C8.70313 24.9433 8.71979 25.1767 8.75313 25.41C8.87313 25.5433 8.98646 25.6433 9.09313 25.71C9.20646 25.77 9.33646 25.8 9.48313 25.8C9.81646 25.8 10.1765 25.6433 10.5631 25.33C10.9498 25.0167 11.2731 24.6033 11.5331 24.09L11.9931 22.26C12.0065 22.2067 12.0331 22.1667 12.0731 22.14C12.1131 22.1067 12.1598 22.09 12.2131 22.09C12.2665 22.09 12.3065 22.1067 12.3331 22.14C12.3598 22.1667 12.3665 22.2067 12.3531 22.26L11.5431 25.51ZM14.5638 26.06C14.1905 25.3933 13.9172 24.8067 13.7438 24.3C13.5705 23.7867 13.4838 23.3267 13.4838 22.92C13.4838 22.4467 13.5872 22.05 13.7938 21.73C14.0005 21.4033 14.3005 21.24 14.6938 21.24C14.9805 21.24 15.2138 21.3167 15.3938 21.47C15.5738 21.6167 15.6638 21.8167 15.6638 22.07C15.6638 22.1567 15.6472 22.26 15.6138 22.38C15.4738 21.8133 15.1672 21.53 14.6938 21.53C14.3938 21.53 14.1772 21.6633 14.0438 21.93C13.9105 22.19 13.8438 22.52 13.8438 22.92C13.8438 23.6267 14.1205 24.5467 14.6738 25.68C15.4072 25.0533 15.9605 24.5433 16.3338 24.15C16.7072 23.75 16.9672 23.3967 17.1138 23.09C17.2672 22.7767 17.3438 22.4433 17.3438 22.09C17.3438 21.7167 17.1538 21.53 16.7738 21.53C16.5672 21.53 16.3905 21.5867 16.2438 21.7C16.3038 21.5467 16.3972 21.4333 16.5238 21.36C16.6572 21.28 16.8072 21.24 16.9738 21.24C17.2138 21.24 17.3972 21.3133 17.5238 21.46C17.6505 21.6 17.7138 21.7933 17.7138 22.04C17.7138 22.44 17.6238 22.8167 17.4438 23.17C17.2705 23.5167 16.9605 23.9133 16.5138 24.36C16.0738 24.8 15.4238 25.3667 14.5638 26.06ZM21.3185 25.51C21.3118 25.53 21.3085 25.5567 21.3085 25.59C21.3085 25.6433 21.3385 25.67 21.3985 25.67C21.4718 25.67 21.5718 25.64 21.6985 25.58C21.8318 25.5133 22.0118 25.4067 22.2385 25.26C22.0185 25.5 21.7985 25.6933 21.5785 25.84C21.3652 25.9867 21.1852 26.06 21.0385 26.06C20.9852 26.06 20.9452 26.0467 20.9185 26.02C20.8985 26 20.8885 25.9633 20.8885 25.91C20.8885 25.85 20.8985 25.7667 20.9185 25.66L21.1185 24.85C20.8918 25.2167 20.6018 25.5167 20.2485 25.75C19.8952 25.9833 19.5685 26.1 19.2685 26.1C19.0352 26.1 18.8352 26.0333 18.6685 25.9C18.5085 25.7667 18.3618 25.5767 18.2285 25.33C18.1618 25.0833 18.1285 24.84 18.1285 24.6C18.1285 24.02 18.2485 23.47 18.4885 22.95C18.7352 22.4233 19.0752 22 19.5085 21.68C19.9485 21.36 20.4385 21.2 20.9785 21.2C21.5718 21.2 22.0985 21.4667 22.5585 22C21.9985 21.6667 21.4552 21.5 20.9285 21.5C20.4618 21.5 20.0418 21.6567 19.6685 21.97C19.2952 22.2767 19.0018 22.6767 18.7885 23.17C18.5818 23.6633 18.4785 24.1767 18.4785 24.71C18.4785 24.9433 18.4952 25.1767 18.5285 25.41C18.6485 25.5433 18.7618 25.6433 18.8685 25.71C18.9818 25.77 19.1118 25.8 19.2585 25.8C19.5918 25.8 19.9518 25.6433 20.3385 25.33C20.7252 25.0167 21.0485 24.6033 21.3085 24.09L21.7685 22.26C21.7818 22.2067 21.8085 22.1667 21.8485 22.14C21.8885 22.1067 21.9352 22.09 21.9885 22.09C22.0418 22.09 22.0818 22.1067 22.1085 22.14C22.1352 22.1667 22.1418 22.2067 22.1285 22.26L21.3185 25.51ZM23.2192 26.06C23.1659 26.06 23.1259 26.0433 23.0992 26.01C23.0792 25.9833 23.0759 25.9433 23.0892 25.89L24.0992 21.81C24.1059 21.79 24.1092 21.7633 24.1092 21.73C24.1092 21.6767 24.0792 21.65 24.0192 21.65C23.9459 21.65 23.8426 21.6833 23.7092 21.75C23.5826 21.81 23.4059 21.9133 23.1792 22.06C23.3992 21.82 23.6159 21.6267 23.8292 21.48C24.0492 21.3333 24.2326 21.26 24.3792 21.26C24.4859 21.26 24.5392 21.31 24.5392 21.41C24.5392 21.4767 24.5259 21.56 24.4992 21.66L24.2792 22.56C24.4926 22.34 24.7526 22.1267 25.0592 21.92C25.3726 21.7067 25.6759 21.5333 25.9692 21.4C26.2626 21.2667 26.4826 21.2 26.6292 21.2C26.7626 21.2 26.8859 21.2567 26.9992 21.37C27.1126 21.4833 27.1592 21.5867 27.1392 21.68L26.1792 25.51C26.1726 25.53 26.1692 25.5533 26.1692 25.58C26.1692 25.64 26.1992 25.67 26.2592 25.67C26.4126 25.67 26.6926 25.5333 27.0992 25.26C26.8859 25.4933 26.6692 25.6867 26.4492 25.84C26.2292 25.9867 26.0459 26.06 25.8992 26.06C25.7926 26.06 25.7392 26.01 25.7392 25.91C25.7392 25.8433 25.7526 25.76 25.7792 25.66L26.8192 21.52C26.4059 21.5667 25.9626 21.7233 25.4892 21.99C25.0226 22.2567 24.5826 22.5867 24.1692 22.98L23.4492 25.89C23.4359 25.9433 23.4059 25.9833 23.3592 26.01C23.3192 26.0433 23.2726 26.06 23.2192 26.06ZM31.1634 25.51C31.1568 25.53 31.1534 25.5567 31.1534 25.59C31.1534 25.6433 31.1834 25.67 31.2434 25.67C31.3968 25.67 31.6768 25.5333 32.0834 25.26C31.8701 25.4933 31.6534 25.6867 31.4334 25.84C31.2134 25.9867 31.0301 26.06 30.8834 26.06C30.8301 26.06 30.7901 26.0467 30.7634 26.02C30.7434 26 30.7334 25.9633 30.7334 25.91C30.7334 25.85 30.7434 25.7667 30.7634 25.66L30.9634 24.85C30.7368 25.21 30.4401 25.51 30.0734 25.75C29.7068 25.9833 29.3734 26.1 29.0734 26.1C28.8401 26.1 28.6401 26.0333 28.4734 25.9C28.3134 25.7667 28.1668 25.5767 28.0334 25.33C27.9668 25.0833 27.9334 24.84 27.9334 24.6C27.9334 24.0133 28.0501 23.46 28.2834 22.94C28.5168 22.4133 28.8301 21.9933 29.2234 21.68C29.6168 21.36 30.0368 21.2 30.4834 21.2C30.7234 21.2 30.9234 21.2433 31.0834 21.33C31.2434 21.41 31.3768 21.5367 31.4834 21.71C31.1634 21.57 30.8301 21.5 30.4834 21.5C30.0701 21.5 29.6934 21.66 29.3534 21.98C29.0201 22.3 28.7568 22.71 28.5634 23.21C28.3768 23.7033 28.2834 24.2033 28.2834 24.71C28.2834 24.9433 28.3001 25.1767 28.3334 25.41C28.4534 25.5433 28.5701 25.6433 28.6834 25.71C28.7968 25.77 28.9268 25.8 29.0734 25.8C29.2868 25.8 29.5201 25.73 29.7734 25.59C30.0334 25.45 30.2834 25.25 30.5234 24.99C30.7701 24.73 30.9801 24.43 31.1534 24.09L32.4334 18.97C32.4401 18.95 32.4434 18.9233 32.4434 18.89C32.4434 18.8367 32.4134 18.81 32.3534 18.81C32.2068 18.81 31.9268 18.9467 31.5134 19.22C31.7268 18.9867 31.9434 18.7967 32.1634 18.65C32.3834 18.4967 32.5668 18.42 32.7134 18.42C32.8201 18.42 32.8734 18.47 32.8734 18.57C32.8734 18.6367 32.8601 18.72 32.8334 18.82L31.1634 25.51ZM34.423 26.1C34.083 26.1 33.7996 26.02 33.573 25.86C33.353 25.6933 33.183 25.4833 33.063 25.23C32.9963 25.03 32.963 24.79 32.963 24.51C32.963 23.9833 33.073 23.4633 33.293 22.95C33.5196 22.4367 33.8296 22.0167 34.223 21.69C34.6163 21.3633 35.053 21.2 35.533 21.2C36.1263 21.2 36.583 21.4667 36.903 22C36.983 22.24 37.023 22.4733 37.023 22.7C37.023 23.1333 36.8596 23.4867 36.533 23.76C36.213 24.0333 35.813 24.17 35.333 24.17C34.733 24.17 34.283 23.97 33.983 23.57C34.1296 23.67 34.3163 23.75 34.543 23.81C34.7696 23.8633 34.9996 23.89 35.233 23.89C35.673 23.89 36.023 23.78 36.283 23.56C36.5496 23.3333 36.683 23.02 36.683 22.62C36.683 22.4333 36.6563 22.2 36.603 21.92C36.3296 21.64 35.9763 21.5 35.543 21.5C35.1163 21.5 34.733 21.6533 34.393 21.96C34.053 22.2667 33.7863 22.6633 33.593 23.15C33.4063 23.6367 33.313 24.1367 33.313 24.65C33.313 24.87 33.3296 25.09 33.363 25.31C33.603 25.6367 33.943 25.8 34.383 25.8C34.723 25.8 35.0796 25.7 35.453 25.5C35.8263 25.3 36.1863 24.9967 36.533 24.59C36.2063 25.11 35.8696 25.4933 35.523 25.74C35.1763 25.98 34.8096 26.1 34.423 26.1ZM37.77 26.06C37.7167 26.06 37.6767 26.0433 37.65 26.01C37.63 25.9833 37.6267 25.9433 37.64 25.89L38.65 21.81C38.6567 21.79 38.66 21.7633 38.66 21.73C38.66 21.6767 38.63 21.65 38.57 21.65C38.4967 21.65 38.3933 21.6833 38.26 21.75C38.1333 21.81 37.9567 21.9133 37.73 22.06C37.95 21.82 38.1667 21.6267 38.38 21.48C38.6 21.3333 38.7833 21.26 38.93 21.26C39.0367 21.26 39.09 21.31 39.09 21.41C39.09 21.4767 39.0767 21.56 39.05 21.66L38.86 22.44C39.4533 21.6133 40.0467 21.2 40.64 21.2C40.84 21.2 40.9933 21.24 41.1 21.32C41.2133 21.4 41.27 21.52 41.27 21.68C41.27 21.84 41.2267 21.9867 41.14 22.12C41.0533 22.2533 40.9433 22.32 40.81 22.32C40.6967 22.32 40.6267 22.2667 40.6 22.16C40.68 22.1533 40.7467 22.12 40.8 22.06C40.8533 21.9933 40.88 21.9067 40.88 21.8C40.88 21.6133 40.76 21.52 40.52 21.52C40.2533 21.52 39.9633 21.6567 39.65 21.93C39.3367 22.1967 39.0167 22.5933 38.69 23.12L38 25.89C37.9867 25.9433 37.9567 25.9833 37.91 26.01C37.87 26.0433 37.8233 26.06 37.77 26.06ZM42.9219 20.05C42.8152 20.05 42.7285 20.02 42.6619 19.96C42.5952 19.8933 42.5619 19.81 42.5619 19.71C42.5619 19.5633 42.6219 19.4367 42.7419 19.33C42.8619 19.2233 42.9952 19.17 43.1419 19.17C43.2485 19.17 43.3352 19.2033 43.4019 19.27C43.4685 19.33 43.5019 19.41 43.5019 19.51C43.5019 19.6567 43.4419 19.7833 43.3219 19.89C43.2019 19.9967 43.0685 20.05 42.9219 20.05ZM41.5019 26.06C41.3952 26.06 41.3419 26.01 41.3419 25.91C41.3419 25.8433 41.3552 25.76 41.3819 25.66L42.3519 21.79C42.3585 21.77 42.3619 21.7433 42.3619 21.71C42.3619 21.6567 42.3319 21.63 42.2719 21.63C42.1252 21.63 41.8419 21.7667 41.4219 22.04C41.6419 21.8 41.8585 21.6067 42.0719 21.46C42.2919 21.3133 42.4752 21.24 42.6219 21.24C42.6819 21.24 42.7252 21.25 42.7519 21.27C42.7785 21.29 42.7919 21.3233 42.7919 21.37C42.7919 21.4167 42.7752 21.5067 42.7419 21.64L41.7819 25.51C41.7752 25.53 41.7719 25.5567 41.7719 25.59C41.7719 25.6433 41.8019 25.67 41.8619 25.67C42.0085 25.67 42.2885 25.5333 42.7019 25.26C42.4885 25.4933 42.2719 25.6867 42.0519 25.84C41.8319 25.9867 41.6485 26.06 41.5019 26.06ZM46.7287 25.51C46.722 25.53 46.7187 25.5567 46.7187 25.59C46.7187 25.6433 46.7487 25.67 46.8087 25.67C46.882 25.67 46.982 25.64 47.1087 25.58C47.242 25.5133 47.422 25.4067 47.6487 25.26C47.4287 25.5 47.2087 25.6933 46.9887 25.84C46.7753 25.9867 46.5953 26.06 46.4487 26.06C46.3953 26.06 46.3553 26.0467 46.3287 26.02C46.3087 26 46.2987 25.9633 46.2987 25.91C46.2987 25.85 46.3087 25.7667 46.3287 25.66L46.5287 24.85C46.302 25.2167 46.012 25.5167 45.6587 25.75C45.3053 25.9833 44.9787 26.1 44.6787 26.1C44.4453 26.1 44.2453 26.0333 44.0787 25.9C43.9187 25.7667 43.772 25.5767 43.6387 25.33C43.572 25.0833 43.5387 24.84 43.5387 24.6C43.5387 24.02 43.6587 23.47 43.8987 22.95C44.1453 22.4233 44.4853 22 44.9187 21.68C45.3587 21.36 45.8487 21.2 46.3887 21.2C46.982 21.2 47.5087 21.4667 47.9687 22C47.4087 21.6667 46.8653 21.5 46.3387 21.5C45.872 21.5 45.452 21.6567 45.0787 21.97C44.7053 22.2767 44.412 22.6767 44.1987 23.17C43.992 23.6633 43.8887 24.1767 43.8887 24.71C43.8887 24.9433 43.9053 25.1767 43.9387 25.41C44.0587 25.5433 44.172 25.6433 44.2787 25.71C44.392 25.77 44.522 25.8 44.6687 25.8C45.002 25.8 45.362 25.6433 45.7487 25.33C46.1353 25.0167 46.4587 24.6033 46.7187 24.09L47.1787 22.26C47.192 22.2067 47.2187 22.1667 47.2587 22.14C47.2987 22.1067 47.3453 22.09 47.3987 22.09C47.452 22.09 47.492 22.1067 47.5187 22.14C47.5453 22.1667 47.552 22.2067 47.5387 22.26L46.7287 25.51Z" fill="#FE02F9"/>
<path d="M52.6875 20.05C52.5808 20.05 52.4942 20.02 52.4275 19.96C52.3608 19.8933 52.3275 19.81 52.3275 19.71C52.3275 19.5633 52.3875 19.4367 52.5075 19.33C52.6275 19.2233 52.7608 19.17 52.9075 19.17C53.0142 19.17 53.1008 19.2033 53.1675 19.27C53.2342 19.33 53.2675 19.41 53.2675 19.51C53.2675 19.6567 53.2075 19.7833 53.0875 19.89C52.9675 19.9967 52.8342 20.05 52.6875 20.05ZM51.2675 26.06C51.1608 26.06 51.1075 26.01 51.1075 25.91C51.1075 25.8433 51.1208 25.76 51.1475 25.66L52.1175 21.79C52.1242 21.77 52.1275 21.7433 52.1275 21.71C52.1275 21.6567 52.0975 21.63 52.0375 21.63C51.8908 21.63 51.6075 21.7667 51.1875 22.04C51.4075 21.8 51.6242 21.6067 51.8375 21.46C52.0575 21.3133 52.2408 21.24 52.3875 21.24C52.4475 21.24 52.4908 21.25 52.5175 21.27C52.5442 21.29 52.5575 21.3233 52.5575 21.37C52.5575 21.4167 52.5408 21.5067 52.5075 21.64L51.5475 25.51C51.5408 25.53 51.5375 25.5567 51.5375 25.59C51.5375 25.6433 51.5675 25.67 51.6275 25.67C51.7742 25.67 52.0542 25.5333 52.4675 25.26C52.2542 25.4933 52.0375 25.6867 51.8175 25.84C51.5975 25.9867 51.4142 26.06 51.2675 26.06ZM53.4243 26.06C53.371 26.06 53.331 26.0433 53.3043 26.01C53.2843 25.9833 53.281 25.9433 53.2943 25.89L54.3043 21.81C54.311 21.79 54.3143 21.7633 54.3143 21.73C54.3143 21.6767 54.2843 21.65 54.2243 21.65C54.151 21.65 54.0476 21.6833 53.9143 21.75C53.7876 21.81 53.611 21.9133 53.3843 22.06C53.6043 21.82 53.821 21.6267 54.0343 21.48C54.2543 21.3333 54.4376 21.26 54.5843 21.26C54.691 21.26 54.7443 21.31 54.7443 21.41C54.7443 21.4767 54.731 21.56 54.7043 21.66L54.4843 22.56C54.6976 22.34 54.9576 22.1267 55.2643 21.92C55.5776 21.7067 55.881 21.5333 56.1743 21.4C56.4676 21.2667 56.6876 21.2 56.8343 21.2C56.9676 21.2 57.091 21.2567 57.2043 21.37C57.3176 21.4833 57.3643 21.5867 57.3443 21.68L56.3843 25.51C56.3776 25.53 56.3743 25.5533 56.3743 25.58C56.3743 25.64 56.4043 25.67 56.4643 25.67C56.6176 25.67 56.8976 25.5333 57.3043 25.26C57.091 25.4933 56.8743 25.6867 56.6543 25.84C56.4343 25.9867 56.251 26.06 56.1043 26.06C55.9976 26.06 55.9443 26.01 55.9443 25.91C55.9443 25.8433 55.9576 25.76 55.9843 25.66L57.0243 21.52C56.611 21.5667 56.1676 21.7233 55.6943 21.99C55.2276 22.2567 54.7876 22.5867 54.3743 22.98L53.6543 25.89C53.641 25.9433 53.611 25.9833 53.5643 26.01C53.5243 26.0433 53.4776 26.06 53.4243 26.06ZM61.0985 20.13C61.3985 20.0567 61.6452 19.9233 61.8385 19.73C62.0318 19.53 62.1285 19.3133 62.1285 19.08C62.1285 18.94 62.0785 18.8333 61.9785 18.76C61.8852 18.68 61.7452 18.64 61.5585 18.64C61.2518 18.64 60.9918 18.7333 60.7785 18.92C60.5652 19.1067 60.4152 19.3767 60.3285 19.73L59.9385 21.3H61.6185L61.5385 21.59H59.8585L58.5085 26.99C58.9552 27.0767 59.3385 27.2233 59.6585 27.43C59.3185 27.3167 58.9152 27.24 58.4485 27.2C58.2352 27.96 57.9385 28.5467 57.5585 28.96C57.1785 29.3733 56.7618 29.58 56.3085 29.58C55.7752 29.58 55.4018 29.41 55.1885 29.07C55.1285 28.95 55.0985 28.8133 55.0985 28.66C55.0985 28.3 55.2252 27.9867 55.4785 27.72C55.7252 27.46 56.0518 27.26 56.4585 27.12C56.8585 26.98 57.2785 26.91 57.7185 26.91C57.8252 26.91 57.9718 26.9167 58.1585 26.93L59.4985 21.59H58.3385L58.4185 21.3H59.5785L59.9685 19.73C60.0818 19.2833 60.2785 18.94 60.5585 18.7C60.8452 18.46 61.2018 18.34 61.6285 18.34C61.9018 18.34 62.1118 18.3967 62.2585 18.51C62.4052 18.6167 62.4785 18.7767 62.4785 18.99C62.4785 19.33 62.3485 19.6067 62.0885 19.82C61.8352 20.0267 61.5052 20.13 61.0985 20.13ZM56.2185 29.29C56.6318 29.29 57.0018 29.1067 57.3285 28.74C57.6552 28.38 57.9118 27.86 58.0985 27.18H57.8785C57.1452 27.18 56.5552 27.31 56.1085 27.57C55.6618 27.8367 55.4385 28.2367 55.4385 28.77C55.4385 28.93 55.4585 29.0433 55.4985 29.11C55.6185 29.23 55.8585 29.29 56.2185 29.29ZM64.8341 25.51C64.8275 25.53 64.8241 25.5567 64.8241 25.59C64.8241 25.6433 64.8541 25.67 64.9141 25.67C64.9875 25.67 65.0875 25.64 65.2141 25.58C65.3475 25.5133 65.5275 25.4067 65.7541 25.26C65.5341 25.5 65.3141 25.6933 65.0941 25.84C64.8808 25.9867 64.7008 26.06 64.5541 26.06C64.5008 26.06 64.4608 26.0467 64.4341 26.02C64.4141 26 64.4041 25.9633 64.4041 25.91C64.4041 25.85 64.4141 25.7667 64.4341 25.66L64.6341 24.85C64.4075 25.2167 64.1175 25.5167 63.7641 25.75C63.4108 25.9833 63.0841 26.1 62.7841 26.1C62.5508 26.1 62.3508 26.0333 62.1841 25.9C62.0241 25.7667 61.8775 25.5767 61.7441 25.33C61.6775 25.0833 61.6441 24.84 61.6441 24.6C61.6441 24.02 61.7641 23.47 62.0041 22.95C62.2508 22.4233 62.5908 22 63.0241 21.68C63.4641 21.36 63.9541 21.2 64.4941 21.2C65.0875 21.2 65.6141 21.4667 66.0741 22C65.5141 21.6667 64.9708 21.5 64.4441 21.5C63.9775 21.5 63.5575 21.6567 63.1841 21.97C62.8108 22.2767 62.5175 22.6767 62.3041 23.17C62.0975 23.6633 61.9941 24.1767 61.9941 24.71C61.9941 24.9433 62.0108 25.1767 62.0441 25.41C62.1641 25.5433 62.2775 25.6433 62.3841 25.71C62.4975 25.77 62.6275 25.8 62.7741 25.8C63.1075 25.8 63.4675 25.6433 63.8541 25.33C64.2408 25.0167 64.5641 24.6033 64.8241 24.09L65.2841 22.26C65.2975 22.2067 65.3241 22.1667 65.3641 22.14C65.4041 22.1067 65.4508 22.09 65.5041 22.09C65.5575 22.09 65.5975 22.1067 65.6241 22.14C65.6508 22.1667 65.6575 22.2067 65.6441 22.26L64.8341 25.51ZM66.7348 26.06C66.6815 26.06 66.6415 26.0433 66.6148 26.01C66.5948 25.9833 66.5915 25.9433 66.6048 25.89L67.6148 21.81C67.6215 21.79 67.6248 21.7633 67.6248 21.73C67.6248 21.6767 67.5948 21.65 67.5348 21.65C67.4615 21.65 67.3582 21.6833 67.2248 21.75C67.0982 21.81 66.9215 21.9133 66.6948 22.06C66.9148 21.82 67.1315 21.6267 67.3448 21.48C67.5648 21.3333 67.7482 21.26 67.8948 21.26C68.0015 21.26 68.0548 21.31 68.0548 21.41C68.0548 21.4767 68.0415 21.56 68.0148 21.66L67.7948 22.56C68.0082 22.34 68.2682 22.1267 68.5748 21.92C68.8882 21.7067 69.1915 21.5333 69.4848 21.4C69.7782 21.2667 69.9982 21.2 70.1448 21.2C70.2782 21.2 70.4015 21.2567 70.5148 21.37C70.6282 21.4833 70.6748 21.5867 70.6548 21.68L69.6948 25.51C69.6882 25.53 69.6848 25.5533 69.6848 25.58C69.6848 25.64 69.7148 25.67 69.7748 25.67C69.9282 25.67 70.2082 25.5333 70.6148 25.26C70.4015 25.4933 70.1848 25.6867 69.9648 25.84C69.7448 25.9867 69.5615 26.06 69.4148 26.06C69.3082 26.06 69.2548 26.01 69.2548 25.91C69.2548 25.8433 69.2682 25.76 69.2948 25.66L70.3348 21.52C69.9215 21.5667 69.4782 21.7233 69.0048 21.99C68.5382 22.2567 68.0982 22.5867 67.6848 22.98L66.9648 25.89C66.9515 25.9433 66.9215 25.9833 66.8748 26.01C66.8348 26.0433 66.7882 26.06 66.7348 26.06ZM71.9491 25.45C71.9424 25.4633 71.9391 25.48 71.9391 25.5C71.9391 25.5667 71.9857 25.6 72.0791 25.6C72.2057 25.6 72.3691 25.57 72.5691 25.51C72.7757 25.45 73.0091 25.3533 73.2691 25.22C73.0024 25.4533 72.7291 25.6433 72.4491 25.79C72.1757 25.93 71.9424 26 71.7491 26C71.6691 26 71.6091 25.99 71.5691 25.97C71.5357 25.9433 71.5191 25.9 71.5191 25.84C71.5191 25.7667 71.5324 25.6867 71.5591 25.6L72.5591 21.59H71.7991L71.8691 21.3H72.6291L72.8591 20.37C72.8924 20.2567 72.9657 20.2 73.0791 20.2C73.1324 20.2 73.1724 20.2167 73.1991 20.25C73.2257 20.2833 73.2324 20.3233 73.2191 20.37L72.9891 21.3H74.1291L74.0591 21.59H72.9191L71.9491 25.45ZM75.8613 20.05C75.7547 20.05 75.668 20.02 75.6013 19.96C75.5347 19.8933 75.5013 19.81 75.5013 19.71C75.5013 19.5633 75.5613 19.4367 75.6813 19.33C75.8013 19.2233 75.9347 19.17 76.0813 19.17C76.188 19.17 76.2747 19.2033 76.3413 19.27C76.408 19.33 76.4413 19.41 76.4413 19.51C76.4413 19.6567 76.3813 19.7833 76.2613 19.89C76.1413 19.9967 76.008 20.05 75.8613 20.05ZM74.4413 26.06C74.3347 26.06 74.2813 26.01 74.2813 25.91C74.2813 25.8433 74.2947 25.76 74.3213 25.66L75.2913 21.79C75.298 21.77 75.3013 21.7433 75.3013 21.71C75.3013 21.6567 75.2713 21.63 75.2113 21.63C75.0647 21.63 74.7813 21.7667 74.3613 22.04C74.5813 21.8 74.798 21.6067 75.0113 21.46C75.2313 21.3133 75.4147 21.24 75.5613 21.24C75.6213 21.24 75.6647 21.25 75.6913 21.27C75.718 21.29 75.7313 21.3233 75.7313 21.37C75.7313 21.4167 75.7147 21.5067 75.6813 21.64L74.7213 25.51C74.7147 25.53 74.7113 25.5567 74.7113 25.59C74.7113 25.6433 74.7413 25.67 74.8013 25.67C74.948 25.67 75.228 25.5333 75.6413 25.26C75.428 25.4933 75.2113 25.6867 74.9913 25.84C74.7713 25.9867 74.588 26.06 74.4413 26.06ZM76.5981 26.06C76.4915 26.06 76.4381 26.01 76.4381 25.91C76.4381 25.8433 76.4515 25.76 76.4781 25.66L78.1481 18.97C78.1548 18.95 78.1581 18.9233 78.1581 18.89C78.1581 18.8367 78.1281 18.81 78.0681 18.81C77.9215 18.81 77.6381 18.9467 77.2181 19.22C77.4381 18.98 77.6548 18.7867 77.8681 18.64C78.0881 18.4933 78.2715 18.42 78.4181 18.42C78.4781 18.42 78.5215 18.43 78.5481 18.45C78.5748 18.47 78.5881 18.5033 78.5881 18.55C78.5881 18.5967 78.5715 18.6867 78.5381 18.82L76.8681 25.51C76.8615 25.5233 76.8581 25.5467 76.8581 25.58C76.8581 25.64 76.8915 25.67 76.9581 25.67C77.1048 25.67 77.3848 25.5333 77.7981 25.26C77.5848 25.4933 77.3681 25.6867 77.1481 25.84C76.9281 25.9867 76.7448 26.06 76.5981 26.06Z" fill="#0571BD"/>
<g clip-path="url(#clip0_2_2)">
<path d="M45.1625 1.0216C44.85 1.11206 44.2625 1.37536 43.9087 1.58329C43.7262 1.69131 43.7037 1.70751 43.6225 1.80337C43.4825 1.9681 43.0075 2.72422 42.5837 3.45738C42.5087 3.587 42.3975 3.77603 42.3375 3.87595C42.2137 4.08253 42.0475 4.40118 41.9738 4.57401C41.9037 4.73738 41.7725 5.1924 41.5312 6.11055C41.2975 7.00169 41.1112 7.75105 41.0287 8.13181C40.9762 8.36945 40.9825 8.3627 40.875 8.33299C40.8512 8.32624 40.7875 8.31274 40.735 8.30329L40.6388 8.28574L40.6325 8.21823C40.6287 8.18042 40.6163 7.97249 40.6062 7.7578C40.5775 7.18801 40.5175 6.1524 40.4812 5.63122C40.4637 5.38278 40.4475 5.12759 40.4425 5.06413C40.4338 4.92641 40.365 4.12439 40.355 4.03797C40.3362 3.88675 40.3112 3.74903 40.2987 3.73282C40.28 3.70852 40.2112 3.69502 40.1637 3.70717C40.0912 3.72472 40.0162 3.82059 40.0625 3.83814C40.0775 3.84354 40.1312 4.25671 40.1487 4.50379C40.1562 4.59966 40.1737 4.82785 40.1875 5.01012C40.2762 6.20101 40.3237 7.04084 40.3337 7.62278L40.34 8.06835L40.2987 8.11156C40.2362 8.17367 40.1687 8.21012 40.1125 8.21012C40.05 8.21012 39.8637 8.14936 39.4437 7.99004C38.8888 7.77941 38.5738 7.65384 38.2438 7.51071C37.945 7.38245 37.845 7.33519 37.3463 7.09215C37.1062 6.97468 36.735 6.7654 36.6925 6.72354C36.6788 6.71004 36.6637 6.69789 36.66 6.69789C36.6487 6.69789 36.625 6.81401 36.625 6.87207C36.625 6.98278 36.64 6.99763 36.9562 7.18396C37.2188 7.33924 37.3475 7.4054 37.7975 7.61468C38.2762 7.83612 38.8162 8.02515 39.6062 8.24388C39.795 8.29654 39.84 8.31409 40.0062 8.40726C40.11 8.46396 40.1962 8.51257 40.1987 8.51527C40.2013 8.51797 40.1937 8.57603 40.1838 8.64489C40.1725 8.71375 40.16 8.79477 40.1562 8.82447C40.1525 8.85417 40.145 8.88658 40.1388 8.89603C40.1312 8.90953 40.0138 8.88118 39.6363 8.77856C39.045 8.61654 38.8937 8.57873 38.2937 8.44776C37.5862 8.29249 36.8537 8.16962 36.2937 8.11291C36.0763 8.09131 35.325 8.09131 35.0812 8.11291C34.6412 8.15342 34.0425 8.28709 33.6937 8.42481C33.6387 8.44641 33.5375 8.48692 33.4688 8.51392C33.1575 8.63544 32.6438 8.93924 32.3675 9.16337C32.1025 9.37806 32 9.56169 32 9.82363C32 9.9546 32.0662 10.1774 32.1462 10.3192C32.3787 10.7269 32.855 11.1927 33.3338 11.4803C33.4525 11.5519 33.5525 11.6019 33.6112 11.6194C33.72 11.6505 33.74 11.6734 33.81 11.8449C33.9162 12.0987 33.9862 12.1649 34.2 12.2135C34.2587 12.2257 34.3162 12.2419 34.3275 12.2486C34.3387 12.2554 34.36 12.2959 34.375 12.3377C34.54 12.817 34.6537 13.0371 34.8475 13.2505C35.0213 13.4422 35.1762 13.5327 35.405 13.5772C35.5475 13.6056 35.7987 13.5988 35.9625 13.5624C36.2225 13.5043 36.5738 13.3693 36.85 13.2194C37.0025 13.137 37.0412 13.1343 37.0487 13.2059C37.0538 13.264 37.0325 13.4314 36.9938 13.6447C36.9237 14.0228 36.9075 14.4778 36.9562 14.7181C37.0025 14.9436 37.0738 15.1219 37.1813 15.2785C37.2587 15.3905 37.5325 15.6889 37.6125 15.7484C37.6437 15.7713 37.7213 15.8334 37.785 15.8874C37.9075 15.9927 38.2 16.1872 38.4375 16.3222C38.7275 16.4869 39.1875 16.684 39.485 16.7705C39.5825 16.8002 39.6675 16.8258 39.6737 16.8299C39.685 16.838 39.895 16.8852 40.125 16.9325C40.5425 17.0189 41.0662 17.0203 41.4125 16.9379C41.6112 16.8893 41.8575 16.7732 41.9937 16.6597C42.1325 16.5463 42.2975 16.3006 42.4412 15.9927C42.7 15.4405 42.775 14.9517 42.6862 14.3765C42.635 14.0322 42.57 13.8324 42.3875 13.4408C42.3 13.2559 42.21 13.0871 42.1275 12.9561C42.0575 12.8467 42 12.7603 42 12.7644C42 12.7698 42.0387 13.025 42.0875 13.3328C42.21 14.124 42.2275 14.332 42.1987 14.6817L42.1838 14.8545L42.1487 14.8181C42.0612 14.7276 41.9688 14.5129 41.9062 14.2577C41.83 13.9431 41.7975 13.6218 41.775 12.9426C41.7625 12.5578 41.7225 11.9367 41.7 11.7477C41.6937 11.6991 41.6775 11.6019 41.6637 11.5316C41.65 11.4614 41.64 11.402 41.6412 11.4007C41.6425 11.3993 41.6887 11.4412 41.7437 11.4952C41.7987 11.5478 41.8975 11.6329 41.9625 11.6856C42.1175 11.8084 42.245 11.9421 42.3525 12.092C42.4012 12.1581 42.4475 12.2176 42.4563 12.2243C42.4662 12.2297 42.5337 12.308 42.6075 12.3985C42.8737 12.7252 43.055 13.079 43.2325 13.6218C43.3225 13.8972 43.3488 13.9971 43.4425 14.4359C43.4862 14.6412 43.5325 14.8248 43.5437 14.8451C43.5938 14.9274 43.6975 14.8613 43.7475 14.7141C43.8275 14.4846 43.8088 14.2213 43.685 13.8203C43.63 13.6434 43.4975 13.295 43.445 13.1897C43.4288 13.1573 43.3637 13.025 43.3 12.8954C43.1537 12.5983 42.9862 12.2864 42.865 12.0852C42.7675 11.9232 42.3875 11.3696 42.32 11.29L42.2812 11.2454L42.325 11.2684C42.3488 11.2819 42.6675 11.4925 43.0312 11.7382C44.0988 12.4552 44.2475 12.5511 44.5813 12.732C44.8488 12.8778 44.96 12.9062 45.35 12.9291C45.5062 12.9386 45.72 12.9656 45.8875 12.9966C46.0337 13.0236 46.1825 13.0223 46.3312 12.9912C46.5012 12.9548 46.575 12.9264 46.7188 12.8413C46.9862 12.6807 47.1525 12.4754 47.3425 12.0717C47.55 11.6316 47.7175 11.109 47.8362 10.5257C47.9637 9.89924 48.0175 9.3119 47.9887 8.82312C47.9675 8.43426 47.9225 8.21282 47.8075 7.91848C47.625 7.44996 47.3687 7.15426 47.025 7.01384C46.795 6.92067 46.7737 6.90987 46.7562 6.88287C46.735 6.85046 46.7437 6.82886 46.8125 6.73839C46.9375 6.57232 47.0787 6.23612 47.135 5.97552C47.2537 5.41519 47.175 4.91156 46.8825 4.36202C46.7612 4.13249 46.6 3.75038 46.5938 3.67612C46.59 3.62076 46.5625 3.47493 46.5262 3.32236C46.4937 3.17789 46.32 2.55679 46.21 2.18818C46.0562 1.66835 45.97 1.41316 45.9275 1.35105C45.8275 1.20118 45.6725 1.07426 45.5325 1.02835C45.4312 0.994596 45.2675 0.991896 45.1625 1.0216ZM44.9 3.16033C44.9 3.17249 44.7625 3.23325 44.755 3.22379C44.7475 3.21704 44.88 3.13738 44.8912 3.14278C44.8962 3.14548 44.9 3.15358 44.9 3.16033ZM44.7 3.24675C44.7 3.24945 44.64 3.28996 44.5662 3.33721C44.4913 3.38312 44.3912 3.45333 44.3425 3.49249C44.2287 3.5843 44.0525 3.78683 43.9187 3.97721C43.7987 4.14869 43.7962 4.15139 43.6312 4.27696C43.2725 4.5497 43.0487 4.67257 42.9113 4.67257H42.835L42.92 4.55375C43.245 4.10278 43.6362 3.73958 44.0312 3.52759C44.21 3.43173 44.535 3.29131 44.6975 3.2427C44.6987 3.24135 44.7 3.24405 44.7 3.24675ZM43.6375 3.33046C43.6587 3.38987 43.6512 3.43983 43.6112 3.51409C43.535 3.65451 43.3762 3.84354 43.2662 3.92861L43.225 3.95831L43.2125 3.9232C43.19 3.85974 43.1975 3.72607 43.225 3.67342C43.2387 3.64776 43.3225 3.5519 43.41 3.46143C43.5787 3.2859 43.615 3.2643 43.6375 3.33046ZM45.3475 3.75848C45.35 3.79088 45.3438 3.82464 45.3287 3.84894C45.2687 3.95021 44.985 4.16489 44.8438 4.2135C44.7287 4.25401 44.5287 4.34447 44.3125 4.45654C44.0512 4.59021 43.88 4.66582 43.785 4.68742C43.7175 4.70363 43.6037 4.69687 43.5675 4.67527C43.5337 4.65502 43.65 4.57131 44.0375 4.33502C44.3425 4.15139 44.5312 4.04607 44.705 3.96371C44.795 3.92185 44.8875 3.87055 44.9113 3.85029C44.9963 3.77738 45.0625 3.75173 45.2437 3.71527C45.3362 3.69772 45.3438 3.70042 45.3475 3.75848ZM42.8175 3.95696L42.875 3.98531L42.8325 4.05552C42.81 4.09468 42.7737 4.15679 42.7512 4.19595C42.7137 4.26076 42.605 4.37282 42.5925 4.35932C42.59 4.35527 42.6 4.32287 42.615 4.28641C42.6325 4.2432 42.6425 4.1919 42.6425 4.13924C42.6438 4.06903 42.6475 4.05688 42.6725 4.04472C42.6912 4.03662 42.7 4.02042 42.7 3.99612C42.7 3.97316 42.71 3.95561 42.7288 3.94616C42.7437 3.93806 42.7575 3.9313 42.7575 3.9313C42.7587 3.92996 42.785 3.94211 42.8175 3.95696ZM45.695 4.59966C45.5237 4.76979 45.2037 4.99527 44.9 5.15865C44.5425 5.35173 44.1525 5.47325 43.9662 5.44894L43.9 5.44084L43.9212 5.39763C43.9925 5.24641 44.1287 5.08169 44.2875 4.95341C44.3562 4.89671 44.6275 4.75493 44.735 4.71848C45.025 4.61991 45.3775 4.55645 45.7125 4.54025L45.7562 4.5389L45.695 4.59966ZM43.6587 5.01688C43.6925 5.02903 43.6987 5.05468 43.7087 5.2059C43.7337 5.62852 43.5262 6.04033 42.9075 6.79915C42.865 6.85046 42.7913 6.94498 42.7437 7.00844C42.6962 7.0719 42.6112 7.18126 42.5562 7.25147C42.24 7.65249 41.9137 8.18852 41.7063 8.64624L41.5912 8.90008L41.5825 8.83662C41.5675 8.71375 41.5737 8.61924 41.6275 8.21688C41.6788 7.82261 41.7887 7.31898 41.9125 6.90852C41.9462 6.79645 41.985 6.65873 42 6.60337C42.035 6.47375 42.1663 6.09569 42.205 6.01198C42.2212 5.97688 42.2413 5.92422 42.25 5.89451C42.2587 5.86481 42.3187 5.72709 42.3837 5.58801C42.495 5.34768 42.6237 5.13164 42.6675 5.11409C42.6775 5.11004 42.775 5.08979 42.8837 5.07223C42.9925 5.05333 43.1325 5.02903 43.1937 5.01823C43.305 4.99797 43.5988 4.99797 43.6587 5.01688ZM45.8937 5.55696C46.0025 5.56911 46.0938 5.57991 46.095 5.58126C46.1163 5.60422 46.09 5.64337 45.9812 5.75409C45.7175 6.01873 45.4875 6.16185 45.2188 6.22531C45.12 6.24962 44.895 6.27662 44.7312 6.28607C44.38 6.30498 44.0487 6.37654 43.7887 6.48861C43.7112 6.52236 43.5775 6.59392 43.49 6.64928C43.2525 6.7978 43.2638 6.79375 43.3137 6.71814C43.3725 6.62768 43.6025 6.37114 43.7037 6.28067C44.1375 5.89451 44.6312 5.64337 45.0875 5.57721C45.1462 5.56776 45.2225 5.55696 45.2562 5.55021C45.3625 5.53266 45.6838 5.53536 45.8937 5.55696ZM46.2925 6.56017C46.2225 6.62768 45.9237 6.8032 45.61 6.95983C45.4675 7.03139 45.3475 7.08945 45.345 7.08945C45.3412 7.08945 45.2325 7.14211 45.1037 7.20557C44.975 7.26903 44.6388 7.4297 44.3562 7.56202C43.57 7.93063 43.445 7.99139 43.0813 8.18042C42.54 8.46261 42.3187 8.59223 42.115 8.74481C42.0712 8.77721 42.0337 8.80422 42.0312 8.80422C42.0287 8.80422 42.0425 8.77586 42.0625 8.73941C42.0825 8.7043 42.1112 8.62734 42.125 8.56793C42.16 8.41266 42.23 8.21688 42.2688 8.16152C42.2875 8.13451 42.345 8.07645 42.3975 8.03055C42.45 7.98464 42.5437 7.90093 42.6062 7.84422C42.6675 7.78886 42.8225 7.65924 42.95 7.55662C43.0775 7.45536 43.2125 7.34599 43.25 7.31493C43.2875 7.28388 43.3462 7.23932 43.3812 7.21637C43.415 7.19342 43.4975 7.13806 43.5637 7.09215C43.805 6.92742 44.1912 6.73704 44.3687 6.69789C44.41 6.68844 44.4637 6.67493 44.4875 6.66683C44.555 6.64388 44.8987 6.64928 45.0875 6.67628C45.18 6.68979 45.3012 6.70599 45.3562 6.71409C45.4862 6.73164 45.7225 6.71679 45.8663 6.68304C45.9862 6.65468 46.2337 6.56692 46.295 6.53046C46.35 6.49941 46.3488 6.50481 46.2925 6.56017ZM45.425 7.50261C45.2175 7.56067 45.025 7.64034 44.8125 7.7551C44.5625 7.88877 44.43 7.97519 43.8525 8.3843C42.9312 9.03645 42.62 9.20388 42.2863 9.22953L42.1937 9.23628L42.325 9.20388C42.4812 9.16607 42.6 9.11612 42.7688 9.01755C42.9037 8.93924 43.2063 8.72725 43.3375 8.61924C43.97 8.09941 44.1462 7.96304 44.3687 7.82261C44.7587 7.57688 45.0687 7.47156 45.4062 7.47021H45.5437L45.425 7.50261ZM45.6087 8.17772C45.6163 8.19932 45.5837 8.23308 45.485 8.30464C45.46 8.32354 45.3537 8.41401 45.25 8.50582C45.0175 8.71375 44.9725 8.74616 44.7962 8.83797C44.6625 8.90818 44.5387 8.94464 44.4787 8.93249C44.4662 8.92979 44.4412 8.92439 44.4212 8.91899C44.2925 8.89063 44.3187 8.74481 44.4825 8.59358C44.6213 8.46531 44.725 8.4005 44.8512 8.3654C44.8912 8.3546 44.9963 8.31544 45.0837 8.27899C45.2638 8.20337 45.3187 8.18582 45.4437 8.17097C45.5825 8.15342 45.6 8.15477 45.6087 8.17772ZM35.9625 8.42481C36.1237 8.46937 36.1687 8.48557 36.1813 8.50717C36.1937 8.53012 36.165 8.60844 36.13 8.64084L36.0975 8.67055L35.9637 8.63679C35.89 8.61789 35.82 8.60169 35.8075 8.60169C35.7962 8.60169 35.7537 8.62464 35.715 8.65434C35.37 8.90683 35.22 8.96354 34.9813 8.93114C34.7925 8.90683 34.7825 8.89873 34.8587 8.82042C34.9412 8.73671 34.9987 8.7178 35.165 8.7205C35.2462 8.7205 35.3225 8.72861 35.3362 8.73536C35.3625 8.75156 35.3675 8.74616 35.475 8.58818C35.5062 8.54363 35.545 8.49637 35.5625 8.48287C35.5912 8.46261 35.7775 8.38835 35.8062 8.387C35.8138 8.387 35.8837 8.4032 35.9625 8.42481ZM44.175 8.56928C44.175 8.57738 43.9913 8.6692 43.9775 8.66785C43.97 8.66785 44.1625 8.56118 44.1712 8.56118C44.1737 8.56118 44.175 8.56523 44.175 8.56928ZM46.4975 8.60574L46.6012 8.62194L46.4338 8.79342C46.1887 9.0432 46.1125 9.09991 45.9625 9.14717C45.8575 9.17958 45.6613 9.20928 45.5562 9.20928H45.4625V9.25654C45.4625 9.39696 45.5312 9.49417 45.6788 9.56034C45.7312 9.58464 45.775 9.60759 45.775 9.61299C45.775 9.61704 45.7287 9.63325 45.6712 9.64675C45.5312 9.68185 45.1937 9.83308 44.8812 10.0019C44.5938 10.1571 44.3125 10.2368 43.93 10.2719C43.815 10.2813 43.4237 10.2543 43.2225 10.2219C43.0025 10.1855 42.4987 10.0559 42.4375 10.0194C42.4187 10.0073 42.4312 10.0005 42.7063 9.86683C42.8512 9.79527 43.1788 9.6751 43.355 9.6265C43.7075 9.52928 43.9125 9.50633 44.6312 9.47932C45.0312 9.46447 45.1375 9.44827 45.1375 9.40641C45.1375 9.37401 45.0487 9.26869 44.9787 9.21738C44.9487 9.19713 44.925 9.17553 44.925 9.17012C44.925 9.15527 45.58 8.79342 45.735 8.72456C46.0275 8.59223 46.2238 8.56253 46.4975 8.60574ZM43.7812 8.77451C43.7737 8.78126 43.7037 8.82717 43.625 8.87848C43.5462 8.92979 43.4162 9.01755 43.3375 9.07426C43.0325 9.29434 42.9625 9.33485 42.8 9.39021C42.6462 9.44287 42.4462 9.47527 42.2188 9.48472L42.0188 9.49283L42.1312 9.44557C42.1937 9.41991 42.3475 9.36726 42.475 9.32945C43 9.17418 43.3637 9.0243 43.65 8.84607C43.7737 8.76776 43.8075 8.75021 43.7812 8.77451ZM37.3663 8.82447C37.5437 8.85012 37.7013 8.88928 37.9575 8.97299C38.1337 9.03105 38.2037 9.04455 38.55 9.08776C38.9275 9.13502 39.215 9.21603 39.5362 9.3632C39.7213 9.44827 40.0887 9.65755 40.2437 9.76692C40.315 9.81688 40.3162 9.81958 40.275 9.81282C40.2513 9.80742 40.125 9.79797 39.9937 9.78987C39.5975 9.76422 39.3187 9.78312 38.4187 9.89789C37.8375 9.9735 37.8125 9.9762 37.505 9.99915C37.255 10.0181 37.2025 10.0181 36.9612 9.99915C36.7562 9.98295 36.66 9.9681 36.55 9.93839C36.3225 9.87764 36.285 9.85873 36.2562 9.79662C36.2013 9.6724 36.2262 9.49688 36.3212 9.3443C36.3775 9.25384 36.5412 9.07426 36.6475 8.98785C36.725 8.92439 36.8837 8.82717 36.9313 8.81367C36.985 8.79882 37.2225 8.80557 37.3663 8.82447ZM36.1712 9.00945C36.1413 9.04861 36.1 9.10801 36.08 9.14177C36.0475 9.19578 36.0375 9.20253 35.9937 9.20523C35.9162 9.21063 35.755 9.24709 35.6375 9.28624C35.4925 9.33485 35.135 9.51578 34.8937 9.6643C34.5025 9.90464 34.165 10.095 34.1537 10.0829C34.1512 10.0788 34.2125 10.0073 34.29 9.92354C34.49 9.70616 34.7537 9.48067 34.9562 9.35375C35.0037 9.32405 35.0862 9.27274 35.1375 9.24034C35.255 9.16742 35.5412 9.04591 35.7062 8.99865C35.83 8.96489 35.9775 8.94464 36.1413 8.94059L36.2275 8.93924L36.1712 9.00945ZM35.9712 9.59814C35.94 9.6481 35.9025 9.72911 35.8863 9.78042L35.8575 9.87088L35.72 9.9546C35.6437 10.0005 35.47 10.1058 35.335 10.1895C34.8825 10.4704 34.635 10.5892 34.4575 10.6094C34.3963 10.6162 34.385 10.6149 34.3937 10.5986C34.495 10.4164 34.9025 10.0842 35.4312 9.75342C35.685 9.59409 35.7337 9.56844 35.9 9.50768C36.0375 9.45772 36.0487 9.47122 35.9712 9.59814ZM33.38 9.58869C33.4538 9.6238 33.47 9.66025 33.4325 9.71156C33.4187 9.73181 33.3937 9.76692 33.3775 9.78987C33.3562 9.81958 33.3375 9.83038 33.3087 9.83038C33.2687 9.83038 33.0375 9.74936 33.0375 9.73586C33.0375 9.73181 33.065 9.69806 33.1 9.6616C33.1575 9.60084 33.2075 9.57654 33.3138 9.56169C33.3188 9.56034 33.3487 9.57249 33.38 9.58869ZM46.0037 9.87628C46.0912 9.90059 46.1962 9.94515 46.3663 10.0329C46.4987 10.1018 46.6112 10.1625 46.6175 10.1679C46.63 10.1814 46.4887 10.2962 46.405 10.3381L46.3425 10.3705L46.18 10.3313C46.0912 10.3097 45.9738 10.2786 45.9187 10.2638C45.8263 10.2381 45.5787 10.1963 45.3875 10.1733C45.3425 10.1679 45.3162 10.1598 45.3275 10.1558C45.3387 10.1517 45.3675 10.1207 45.3912 10.0869C45.445 10.0113 45.5337 9.93164 45.5962 9.90194C45.74 9.83713 45.8325 9.83038 46.0037 9.87628ZM40.1412 10.1612C40.1525 10.1882 40.1625 10.2111 40.1625 10.2138C40.1625 10.2179 40.1213 10.2368 40.0725 10.257C39.6412 10.4326 39.32 10.5824 39.0062 10.7526C38.3863 11.0874 38.0012 11.3588 37.3787 11.9003C37.1188 12.1257 36.8675 12.3499 36.7137 12.493C36.4837 12.709 36.3212 12.8292 36.2975 12.8035C36.2812 12.786 36.3112 12.7104 36.3375 12.7023C36.355 12.6969 36.4125 12.6051 36.4125 12.5821C36.4125 12.5794 36.37 12.5794 36.3187 12.5821C36.2675 12.5848 36.225 12.5821 36.225 12.5754C36.225 12.5457 36.3412 12.385 36.65 11.9907C36.9562 11.6005 37.4275 11.0591 37.775 10.6999L38.025 10.4434L38.24 10.3664C38.66 10.2192 39.0125 10.1409 39.255 10.1409C39.37 10.1409 39.6425 10.1814 39.7075 10.2098C39.7287 10.2179 39.7712 10.2206 39.8112 10.2152C39.8775 10.2057 40.0475 10.1517 40.0862 10.1274C40.1163 10.1085 40.1187 10.1099 40.1412 10.1612ZM41.11 10.2179C41.1 10.2314 40.9963 10.3664 40.8812 10.519C40.6987 10.7593 40.4113 11.1266 40.2238 11.3615C40.1475 11.4574 39.9187 11.6842 39.7937 11.7882C39.6687 11.8935 39.46 12.0069 39.3238 12.0461C39.255 12.065 39.1588 12.0785 39.05 12.0852L38.8812 12.0933L38.7812 12.1527C38.7262 12.1838 38.6388 12.2392 38.5875 12.2743C38.4575 12.362 38.3312 12.4363 38.3125 12.4363C38.2862 12.4363 38.3038 12.2783 38.3375 12.2C38.3762 12.1122 38.5837 11.8881 38.725 11.7801C38.89 11.6532 39.2825 11.3993 39.5812 11.2238C39.815 11.0874 40.3675 10.7431 40.5 10.6527C40.6362 10.5581 40.8237 10.4191 40.98 10.2935C41.1012 10.1976 41.1487 10.1706 41.11 10.2179ZM36.4662 10.2678C36.5338 10.2867 36.5875 10.3151 36.5875 10.3313C36.5875 10.3354 36.4938 10.4204 36.3787 10.5203C36.2625 10.6189 36.1413 10.7283 36.1062 10.7634C36.0075 10.8619 35.83 11.0064 35.6937 11.0996C35.625 11.1455 35.555 11.1941 35.5375 11.2076C35.3837 11.321 35.0712 11.429 34.8512 11.4439L34.7213 11.4533L34.7625 11.375C34.785 11.3305 34.8187 11.2738 34.8375 11.2481C34.8563 11.2224 34.8787 11.186 34.8875 11.1671C34.9237 11.0955 35.0912 10.8822 35.2012 10.7701C35.485 10.4812 35.7925 10.3138 36.1375 10.257C36.2175 10.2449 36.405 10.2503 36.4662 10.2678ZM37.9 10.2665C37.9 10.2692 37.8475 10.3138 37.785 10.3651C37.7213 10.4164 37.515 10.5946 37.325 10.762C36.48 11.506 36.285 11.668 35.9712 11.884C35.8238 11.9853 35.4575 12.1797 35.4437 12.1635C35.435 12.1541 35.5075 11.8894 35.5425 11.8084C35.6363 11.5857 35.9137 11.2792 36.2013 11.078C36.2875 11.0172 36.34 10.9754 36.6 10.7593C36.8525 10.55 37.1375 10.3759 37.2762 10.3448C37.5225 10.2908 37.9 10.2435 37.9 10.2665ZM42.5138 10.3286C42.5925 10.3583 42.8275 10.4245 43.0375 10.4771C43.4075 10.5703 43.5175 10.604 43.8313 10.7215C44.035 10.7971 44.6887 11.1347 44.9875 11.3183C45.1213 11.3993 45.2975 11.5073 45.3775 11.5559C45.4575 11.6059 45.5212 11.6478 45.5187 11.6505C45.5162 11.6532 45.4262 11.614 45.3162 11.564C45.01 11.4236 44.64 11.2805 44.4462 11.2278C44.3313 11.1954 44.1412 11.1819 44.1213 11.2022C44.1175 11.2076 44.135 11.2413 44.1613 11.2805C44.1862 11.3183 44.2387 11.398 44.275 11.4574C44.38 11.6262 44.4775 11.7288 44.5875 11.7841C44.665 11.8233 44.7063 11.8341 44.8375 11.8503C45.075 11.8786 45.0675 11.8813 44.75 11.8759C44.31 11.8678 44.1475 11.8341 43.8987 11.7004C43.72 11.6032 43.6312 11.5235 43.2063 11.0793C42.9762 10.839 42.7587 10.627 42.6125 10.5001C42.3512 10.2719 42.355 10.2759 42.3637 10.2759C42.3675 10.2759 42.435 10.3003 42.5138 10.3286ZM45.4 10.3691C45.6025 10.4299 45.8263 10.6567 45.9963 10.9713C46.0938 11.1522 46.115 11.1968 46.1087 11.2022C46.1062 11.2062 46.0588 11.1927 46.005 11.1752C45.9513 11.1563 45.7662 11.0955 45.5938 11.0402C45.4225 10.9848 45.0988 10.8714 44.875 10.789C44.6512 10.7067 44.45 10.6324 44.4288 10.6243C44.4062 10.6162 44.3875 10.604 44.3875 10.6C44.3875 10.5946 44.4175 10.5851 44.4537 10.5811C44.6388 10.5541 44.8337 10.4893 45.05 10.3786C45.1375 10.334 45.2712 10.3313 45.4 10.3691ZM44.325 10.5797C44.345 10.5919 44.3488 10.5986 44.3362 10.6C44.3263 10.6 44.3062 10.5905 44.2925 10.5797C44.2625 10.5554 44.2837 10.5541 44.325 10.5797ZM39.5 10.9024C39.5 10.9173 38.9537 11.4196 38.8438 11.506C38.775 11.56 38.4737 11.7801 38.175 11.9948C37.62 12.3944 37.2387 12.6496 37.0925 12.7212L37.01 12.7603L37.0312 12.7239C37.0437 12.7023 37.0775 12.6523 37.1062 12.6118C37.135 12.5713 37.1762 12.5078 37.1988 12.4727C37.255 12.3836 37.5425 12.0771 37.6813 11.957C37.9862 11.695 38.4062 11.4398 39.0875 11.1063C39.2425 11.0307 39.3975 10.9524 39.4312 10.9335C39.5 10.8943 39.5 10.8943 39.5 10.9024ZM41.04 11.1414C41.02 11.1968 40.9762 11.3291 40.9437 11.4371C40.9113 11.5451 40.8375 11.7693 40.7812 11.9367C40.725 12.1041 40.6687 12.2743 40.6562 12.3148C40.6213 12.4309 40.435 12.8535 40.355 12.9993C40.265 13.164 40.18 13.2883 40.0612 13.43C40.01 13.4894 39.935 13.5826 39.895 13.6366C39.8 13.7608 39.5975 13.9715 39.5113 14.0336C39.475 14.0606 39.4425 14.0808 39.4412 14.0781C39.4387 14.0768 39.445 14.0565 39.4525 14.0336C39.465 13.9971 39.4625 13.9809 39.4325 13.9067C39.4125 13.8594 39.3937 13.8162 39.3887 13.8108C39.3837 13.8054 39.3537 13.85 39.32 13.9094L39.26 14.0187L39.2575 14.1821C39.2525 14.4251 39.1962 14.6115 39.0538 14.8424C38.995 14.9396 38.8263 15.1421 38.7838 15.1651C38.7625 15.1786 38.7638 15.1718 38.7925 15.1205C38.8625 14.9976 38.925 14.8316 39.0113 14.5386C39.06 14.3725 39.1062 14.201 39.1125 14.1565C39.1287 14.0538 39.1287 13.8108 39.1125 13.7703C39.0963 13.7257 39.0487 13.669 39.0425 13.6866C39.0187 13.7487 38.865 14.0282 38.7775 14.1713C38.6325 14.4049 38.4837 14.5723 38.3587 14.6425C38.3075 14.6709 38.2587 14.6925 38.2512 14.6898C38.2438 14.6871 38.365 14.4981 38.5212 14.2712C38.6788 14.0444 38.86 13.7743 38.925 13.6717C39.0562 13.4665 39.1112 13.3922 39.1825 13.3247C39.2225 13.2869 39.2387 13.2802 39.2987 13.2775L39.3687 13.2761L39.4025 13.1559C39.4475 12.9953 39.4737 12.9237 39.535 12.7873C39.7437 12.3215 40.0588 11.903 40.5188 11.479C40.6762 11.3332 41.06 11.0253 41.0712 11.0361C41.0737 11.0402 41.06 11.0874 41.04 11.1414ZM41.3687 11.5073C41.4 11.5857 41.4412 11.718 41.4612 11.8003C41.4812 11.8813 41.5 11.9543 41.5037 11.9597C41.5287 12.0042 41.6225 12.6199 41.6487 12.9156C41.6975 13.453 41.705 13.6447 41.7063 14.2253V14.8194H41.6687C41.6362 14.8194 41.6275 14.81 41.5975 14.7451C41.5562 14.6533 41.5075 14.4913 41.4762 14.3401C41.4437 14.1821 41.44 14.1538 41.4137 13.9134C41.4 13.7986 41.3875 13.7014 41.385 13.6974C41.3812 13.6947 41.3725 13.7514 41.3637 13.8243C41.355 13.8959 41.3263 14.066 41.2987 14.201C41.2575 14.4089 41.25 14.4724 41.25 14.6061C41.25 14.7735 41.2662 14.9085 41.295 14.9922C41.315 15.0503 41.3175 15.0665 41.3012 15.0476C41.27 15.0138 41.1375 14.5966 41.0638 14.3063C40.935 13.7932 40.8538 13.3247 40.8187 12.8913C40.7937 12.5713 40.795 12.4565 40.825 12.331C40.8737 12.1271 40.9137 12.0326 41.1862 11.4938C41.2925 11.2846 41.2812 11.2832 41.3687 11.5073ZM45.6512 11.7153C45.6725 11.7261 45.6875 11.7396 45.6838 11.7423C45.68 11.7463 45.6587 11.7369 45.6362 11.722C45.5862 11.6883 45.5975 11.6842 45.6512 11.7153ZM44.5225 12.1662C44.6475 12.2027 44.79 12.2513 44.84 12.2743C44.965 12.3323 45.2013 12.4619 45.2287 12.4876C45.25 12.5078 45.2575 12.5754 45.2425 12.6186C45.2275 12.6577 45.1388 12.6969 45.0825 12.6874C44.9975 12.6726 44.5763 12.5173 44.4675 12.4606C44.3475 12.3971 44.2063 12.2851 44.1737 12.2284C44.1462 12.1811 44.1425 12.1176 44.1662 12.1082C44.2112 12.0879 44.315 12.1055 44.5225 12.1662ZM39.2362 12.4714C39.2225 12.4903 39.2237 12.4957 39.2425 12.5105C39.2862 12.5457 39.2475 12.6159 39.095 12.7806C38.9575 12.9291 38.7838 13.079 38.5462 13.2518C38.4187 13.345 38.2775 13.4287 38.2662 13.4165C38.25 13.4003 38.4812 13.0925 38.615 12.9548C38.795 12.7671 38.9437 12.6456 39.1687 12.4984C39.2537 12.443 39.26 12.4403 39.2362 12.4714ZM40.7662 13.268C40.7612 13.3072 40.7513 13.5556 40.7362 13.9418C40.7125 14.6047 40.6487 15.0246 40.545 15.2015C40.4913 15.2947 40.4825 15.2947 40.4475 15.2083C40.37 15.0179 40.3212 14.8154 40.3 14.5899C40.285 14.4305 40.245 14.1443 40.2325 14.1105C40.2275 14.097 40.2513 14.0525 40.2962 13.989C40.3387 13.9283 40.3912 13.8297 40.4275 13.7419C40.5138 13.53 40.5638 13.4408 40.6575 13.3301C40.7375 13.2343 40.7712 13.2154 40.7662 13.268ZM40.0212 14.3158C40.055 14.3914 40.0712 14.5521 40.0612 14.6925C40.0525 14.8086 40.0175 14.9193 39.9187 15.1448C39.8487 15.3014 39.7762 15.3932 39.7237 15.3932C39.6762 15.3932 39.5938 15.3257 39.56 15.2596C39.4937 15.134 39.4812 15.057 39.4812 14.7938V14.5534L39.535 14.5035C39.5987 14.4467 39.9475 14.2442 39.975 14.2496C39.985 14.251 40.0062 14.2807 40.0212 14.3158Z" fill="#6504E0"/>
</g>
<defs>
<clipPath id="clip0_2_2">
<rect width="16" height="16" fill="white" transform="translate(32 1)"/>
</clipPath>
</defs>
</svg>
